<?xml version="1.0" encoding="utf-8"?><svg viewBox="0 0 47.5 40" xmlns="http://www.w3.org/2000/svg" xmlns:xlink="http://www.w3.org/1999/xlink"><style>:root>svg{display:none}:root>svg:target{display:block}</style><svg fill="none" viewBox="0 0.05 15.5 7.36" id="arrow-icon" xmlns="http://www.w3.org/2000/svg"><path d="M15.354 4.09a.5.5 0 000-.707L12.172.2a.5.5 0 10-.708.707l2.829 2.828-2.829 2.829a.5.5 0 10.708.707l3.182-3.182zM0 4.236h15v-1H0v1z" fill="#000"/></svg><svg fill="none" viewBox="0.68 0.48 42.82 7.36" id="black-arrow-icon" xmlns="http://www.w3.org/2000/svg"><path d="M43.354 4.512a.5.5 0 000-.707L40.172.623a.5.5 0 10-.707.707l2.828 2.828-2.828 2.829a.5.5 0 10.707.707l3.182-3.182zM.678 4.658H43v-1H.678v1z" fill="#2C2C2C"/></svg><svg fill="none" viewBox="0 0 39 40" id="input-name-icon" xmlns="http://www.w3.org/2000/svg"><circle cx="19.5" cy="20.217" r="19.2" fill="#fff" stroke="#E1E1E1" stroke-width=".6"/><mask id="ca" style="mask-type:alpha" maskUnits="userSpaceOnUse" x="0" y="0" width="38" height="40"><path d="M37.7 19.717c0 5.182-1.732 10.126-4.929 13.699-3.191 3.567-7.854 5.782-13.757 5.501C8.666 38.424.3 30.042.3 19.717c0-10.328 8.372-18.7 18.7-18.7s18.7 8.372 18.7 18.7z" fill="#fff" stroke="#E1E1E1" stroke-width=".6"/></mask><g mask="url(#ca)" fill="#F3F3F7"><path d="M19.5 10.717c-4.216 0-7.646 3.43-7.646 7.646 0 4.217 3.43 7.647 7.646 7.647 4.216 0 7.646-3.43 7.646-7.647 0-4.216-3.43-7.646-7.646-7.646zm9.514 20.288c-2.094-2.125-4.869-3.296-7.815-3.296h-3.398c-2.946 0-5.721 1.17-7.815 3.296a11.144 11.144 0 00-3.23 7.862c0 .47.38.85.85.85h23.788c.47 0 .85-.38.85-.85 0-2.955-1.147-5.747-3.23-7.862z"/></g></svg><svg fill="none" viewBox="0 0.72 39 39" id="input-phone-icon" xmlns="http://www.w3.org/2000/svg"><circle cx="19.5" cy="20.217" r="19.2" fill="#fff" stroke="#E1E1E1" stroke-width=".6"/><mask id="da" style="mask-type:alpha" maskUnits="userSpaceOnUse" x="0" y="0" width="38" height="40"><path d="M37.7 19.717c0 5.182-1.732 10.126-4.929 13.699-3.191 3.567-7.854 5.782-13.757 5.501C8.666 38.424.3 30.042.3 19.717c0-10.328 8.372-18.7 18.7-18.7s18.7 8.372 18.7 18.7z" fill="#fff" stroke="#E1E1E1" stroke-width=".6"/></mask><g mask="url(#da)"><path d="M29.074 24.47c-1.47 0-2.912-.23-4.28-.682-.669-.228-1.493-.018-1.902.401l-2.698 2.038c-3.13-1.671-5.057-3.598-6.705-6.704l1.977-2.628a1.94 1.94 0 00.477-1.966 13.646 13.646 0 01-.684-4.286 1.928 1.928 0 00-1.926-1.926H8.926A1.928 1.928 0 007 10.643c0 12.171 9.902 22.074 22.074 22.074A1.928 1.928 0 0031 30.79v-4.395a1.928 1.928 0 00-1.926-1.926z" fill="#F3F3F7"/></g></svg><svg viewBox="0.02 0.52 14.98 14.95" id="tel-icon" xmlns="http://www.w3.org/2000/svg"><path d="M14.664 12.35l-2.314-2.314c-.46-.46-1.224-.446-1.701.032l-1.166 1.165c-.074-.04-.15-.083-.23-.128-.736-.408-1.744-.967-2.804-2.028-1.064-1.063-1.623-2.073-2.032-2.81l-.126-.224.783-.781.384-.385c.478-.478.491-1.241.031-1.702L3.175.861C2.715.4 1.952.415 1.474.893l-.652.656.018.017c-.219.28-.402.601-.538.948a3.93 3.93 0 00-.239.962c-.305 2.533.852 4.848 3.994 7.99 4.342 4.342 7.842 4.014 7.993 3.998a3.91 3.91 0 00.964-.243c.344-.134.665-.316.944-.535l.014.013.661-.647c.477-.478.49-1.241.031-1.702z"/></svg><svg fill="none" viewBox="0.74 0.94 17.38 14.73" id="white-arrow-icon" xmlns="http://www.w3.org/2000/svg"><path d="M17.825 9.014a1 1 0 000-1.414l-6.364-6.364a1 1 0 10-1.414 1.414l5.657 5.657-5.657 5.656a1 1 0 001.414 1.415l6.364-6.364zM.74 9.307h16.38v-2H.738v2z" fill="#fff"/></svg><svg fill="none" viewBox="0 0.04 47.5 7.36" id="yellow-arrow-icon" xmlns="http://www.w3.org/2000/svg"><path d="M47.354 4.074a.5.5 0 000-.707L44.172.185a.5.5 0 10-.707.707l2.828 2.829-2.828 2.828a.5.5 0 10.707.707l3.182-3.182zM0 4.221h47v-1H0v1z" fill="#F6BB1A"/></svg></svg>