<?xml version="1.0" encoding="utf-8"?><svg viewBox="0 0 16 16" xmlns="http://www.w3.org/2000/svg" xmlns:xlink="http://www.w3.org/1999/xlink"><style>:root>svg{display:none}:root>svg:target{display:block}</style><svg fill="none" viewBox="-0.97 -0.76 16 16" id="cross-icon" xmlns="http://www.w3.org/2000/svg"><path d="M.528 7.24h6.5m6.5 0h-6.5m0 0V.74v13" stroke="#000" stroke-width="3"/><path d="M.528 7.24h6.5m6.5 0h-6.5m0 0V.74v13" stroke="url(#aa)" stroke-width="3"/><defs><linearGradient id="aa" x1="7.444" y1="1.068" x2="11.48" y2="12.515" gradientUnits="userSpaceOnUse"><stop stop-color="#FA7070"/><stop offset="1" stop-color="#9C0B0B"/></linearGradient></defs></svg><svg viewBox="0.02 0.52 14.98 14.95" id="tel-icon" xmlns="http://www.w3.org/2000/svg"><path d="M14.664 12.35l-2.314-2.314c-.46-.46-1.224-.446-1.701.032l-1.166 1.165c-.074-.04-.15-.083-.23-.128-.736-.408-1.744-.967-2.804-2.028-1.064-1.063-1.623-2.073-2.032-2.81l-.126-.224.783-.781.384-.385c.478-.478.491-1.241.031-1.702L3.175.861C2.715.4 1.952.415 1.474.893l-.652.656.018.017c-.219.28-.402.601-.538.948a3.93 3.93 0 00-.239.962c-.305 2.533.852 4.848 3.994 7.99 4.342 4.342 7.842 4.014 7.993 3.998a3.91 3.91 0 00.964-.243c.344-.134.665-.316.944-.535l.014.013.661-.647c.477-.478.49-1.241.031-1.702z"/></svg></svg>