<?xml version="1.0" encoding="utf-8"?><svg viewBox="0 0 47.5 14.95" xmlns="http://www.w3.org/2000/svg" xmlns:xlink="http://www.w3.org/1999/xlink"><style>:root>svg{display:none}:root>svg:target{display:block}</style><svg fill="none" viewBox="0 0.05 15.5 7.36" id="arrow-icon" xmlns="http://www.w3.org/2000/svg"><path d="M15.354 4.09a.5.5 0 000-.707L12.172.2a.5.5 0 10-.708.707l2.829 2.828-2.829 2.829a.5.5 0 10.708.707l3.182-3.182zM0 4.236h15v-1H0v1z" fill="#000"/></svg><svg fill="none" viewBox="0.68 0.48 42.82 7.36" id="black-arrow-icon" xmlns="http://www.w3.org/2000/svg"><path d="M43.354 4.512a.5.5 0 000-.707L40.172.623a.5.5 0 10-.707.707l2.828 2.828-2.828 2.829a.5.5 0 10.707.707l3.182-3.182zM.678 4.658H43v-1H.678v1z" fill="#2C2C2C"/></svg><svg viewBox="0.02 0.52 14.98 14.95" id="tel-icon" xmlns="http://www.w3.org/2000/svg"><path d="M14.664 12.35l-2.314-2.314c-.46-.46-1.224-.446-1.701.032l-1.166 1.165c-.074-.04-.15-.083-.23-.128-.736-.408-1.744-.967-2.804-2.028-1.064-1.063-1.623-2.073-2.032-2.81l-.126-.224.783-.781.384-.385c.478-.478.491-1.241.031-1.702L3.175.861C2.715.4 1.952.415 1.474.893l-.652.656.018.017c-.219.28-.402.601-.538.948a3.93 3.93 0 00-.239.962c-.305 2.533.852 4.848 3.994 7.99 4.342 4.342 7.842 4.014 7.993 3.998a3.91 3.91 0 00.964-.243c.344-.134.665-.316.944-.535l.014.013.661-.647c.477-.478.49-1.241.031-1.702z"/></svg><svg fill="none" viewBox="0.74 0.94 17.38 14.73" id="white-arrow-icon" xmlns="http://www.w3.org/2000/svg"><path d="M17.825 9.014a1 1 0 000-1.414l-6.364-6.364a1 1 0 10-1.414 1.414l5.657 5.657-5.657 5.656a1 1 0 001.414 1.415l6.364-6.364zM.74 9.307h16.38v-2H.738v2z" fill="#fff"/></svg><svg fill="none" viewBox="0 0.04 47.5 7.36" id="yellow-arrow-icon" xmlns="http://www.w3.org/2000/svg"><path d="M47.354 4.074a.5.5 0 000-.707L44.172.185a.5.5 0 10-.707.707l2.828 2.829-2.828 2.828a.5.5 0 10.707.707l3.182-3.182zM0 4.221h47v-1H0v1z" fill="#F6BB1A"/></svg></svg>