<svg xmlns="http://www.w3.org/2000/svg" fill="none" viewBox="0.5 0.74 349 349"><path d="M264.35 175.236c0 49.9-40.228 90.35-89.85 90.35-49.622 0-89.85-40.45-89.85-90.35 0-49.899 40.228-90.35 89.85-90.35 49.622 0 89.85 40.451 89.85 90.35Z" stroke="#fff" stroke-width=".3"/><circle cx="175" cy="175.236" r="174.35" stroke="#fff" stroke-width=".3"/><g filter="url(#a)"><circle cx="174.664" cy="174.901" r="47.164" fill="#fff"/><path d="M171.361 191.789c-3.093 1.823-6.999-.386-7.031-3.976l-.22-24.53c-.032-3.59 3.834-5.869 6.959-4.101l21.354 12.074c3.125 1.767 3.165 6.255.072 8.078l-21.134 12.455Z" fill="#C4C4C4"/><path d="M171.361 191.789c-3.093 1.823-6.999-.386-7.031-3.976l-.22-24.53c-.032-3.59 3.834-5.869 6.959-4.101l21.354 12.074c3.125 1.767 3.165 6.255.072 8.078l-21.134 12.455Z" fill="url(#b)"/></g><defs><linearGradient id="b" x1="163.674" y1="194.119" x2="171.341" y2="150.928" gradientUnits="userSpaceOnUse"><stop stop-color="#FFDC5E"/><stop offset="1" stop-color="#F6BB1A"/></linearGradient><filter id="a" x="84.5" y="97.736" width="180.328" height="180.328" filterUnits="userSpaceOnUse" color-interpolation-filters="sRGB"><feFlood flood-opacity="0" result="BackgroundImageFix"/><feColorMatrix in="SourceAlpha" values="0 0 0 0 0 0 0 0 0 0 0 0 0 0 0 0 0 0 127 0" result="hardAlpha"/><feOffset dy="13"/><feGaussianBlur stdDeviation="21.5"/><feColorMatrix values="0 0 0 0 0 0 0 0 0 0 0 0 0 0 0 0 0 0 0.16 0"/><feBlend in2="BackgroundImageFix" result="effect1_dropShadow_409_1750"/><feBlend in="SourceGraphic" in2="effect1_dropShadow_409_1750" result="shape"/></filter></defs></svg>