<svg xmlns="http://www.w3.org/2000/svg" fill="none" viewBox="0.38 0.17 23.34 23.32"><path fill-rule="evenodd" clip-rule="evenodd" d="M.541.325a.547.547 0 0 0-.16.387v10.486c0 7.586.018 10.751.06 10.843a.61.61 0 0 0 .214.222c.141.084.653.091 6.136.091 5.484 0 5.996-.007 6.137-.09a.58.58 0 0 0 .114-.9.547.547 0 0 0-.387-.16H7.207a5.675 5.675 0 0 1-5.675-5.675V8.904A7.588 7.588 0 0 1 9.12 1.316h3.172a4.416 4.416 0 0 1 4.416 4.416c0 4.896-.015 4.69.355 4.866.227.107.27.107.496 0 .371-.176.355.062.355-5.17 0-5.078.005-4.973-.28-5.174-.117-.081-.851-.089-8.53-.089H.928a.547.547 0 0 0-.387.16Zm2.488 2.23c-.315.155-.347.307-.347 1.66 0 1.303.033 1.494.28 1.668.117.082.67.09 6.14.09 4.206 0 6.051-.018 6.143-.06.289-.132.313-.258.313-1.664 0-1.068-.015-1.324-.086-1.461-.174-.336.104-.322-6.364-.32-5.25 0-5.925.01-6.08.087Zm11.378 1.692a.575.575 0 0 1-.575.575H4.463a.575.575 0 1 1 0-1.15h9.369c.317 0 .575.257.575.575ZM2.963 7.267c-.248.174-.28.366-.28 1.668 0 1.811-.063 1.75 1.749 1.75 1.302 0 1.494-.033 1.667-.28.077-.11.09-.322.09-1.518V7.725a.547.547 0 0 0-.547-.547H4.479c-1.195 0-1.407.012-1.516.09Zm4.591.071a.547.547 0 0 0-.16.387v1.162c0 1.196.013 1.407.09 1.517.173.248.365.28 1.667.28 1.363 0 1.51-.03 1.663-.354.12-.252.127-2.51.01-2.79-.148-.356-.179-.362-1.72-.362H7.94a.547.547 0 0 0-.387.16Zm4.794-.097c-.272.132-.297.27-.297 1.66 0 1.452.024 1.566.358 1.706.268.111 2.523.111 2.79 0 .335-.14.359-.254.359-1.706 0-1.405-.024-1.532-.313-1.664-.17-.077-2.737-.074-2.897.004Zm-7.31 1.663a.575.575 0 1 1-1.15 0 .575.575 0 0 1 1.15 0Zm4.657 0a.575.575 0 1 1-1.15 0 .575.575 0 0 1 1.15 0Zm4.712 0a.575.575 0 0 1-.575.575h-.055a.575.575 0 0 1 0-1.15h.055c.317 0 .575.257.575.575ZM2.977 11.94a.633.633 0 0 0-.233.282c-.096.276-.083 2.524.016 2.761.14.335.254.358 1.705.358 1.406 0 1.533-.023 1.664-.313.086-.187.08-2.704-.006-2.893-.126-.277-.254-.3-1.671-.3-1.185 0-1.32.01-1.475.105Zm4.682-.011a.617.617 0 0 0-.206.22c-.08.176-.08 2.703 0 2.88.132.289.26.313 1.664.313 1.452 0 1.566-.024 1.706-.359.112-.267.112-2.522 0-2.79-.14-.335-.253-.358-1.714-.357-1.117.002-1.325.015-1.45.093Zm4.748-.045a.792.792 0 0 0-.219.17c-.103.115-.11.198-.11 1.536v1.221c0 .124.048.243.133.334.264.281.778.22.93-.113.037-.082.06-.495.06-1.063v-.7c0-.139.085-.263.213-.314a.573.573 0 0 0 .194-.96c-.124-.116-.2-.134-.616-.145-.261-.008-.524.008-.585.034Zm5.534.04c-1.106.163-2.037.443-2.575.775-.351.216-.688.567-.828.862-.085.18-.13.377-.13.577v7.051c0 .208.046.414.134.603.342.736 1.376 1.317 2.824 1.587.735.137 2.661.137 3.397 0 1.447-.27 2.48-.851 2.823-1.587.088-.189.134-.395.134-.603V17.67c-.001-3.652-.006-3.846-.105-4.065-.322-.708-1.226-1.247-2.578-1.536-.532-.114-.81-.138-1.781-.152-.633-.01-1.225-.006-1.315.007ZM5.038 13.588v.028a.575.575 0 1 1-1.15 0v-.055a.575.575 0 1 1 1.15 0v.027Zm4.657 0v.028a.575.575 0 1 1-1.15 0v-.055a.575.575 0 1 1 1.15 0v.027Zm10.13-.543c1.439.134 2.746.68 2.746 1.146 0 .175-.474.532-.951.717-.811.314-1.355.399-2.556.399-1.2 0-1.744-.085-2.555-.399-.478-.185-.951-.542-.951-.717 0-.442 1.291-1.005 2.615-1.141.686-.07.948-.072 1.653-.006Zm-3.88 2.878c1.012.413 1.87.569 3.122.569 1.238 0 2.12-.158 3.071-.55.216-.09.402-.162.413-.162.01 0 .02.183.02.406 0 .358-.018.428-.141.575-.338.4-1.47.774-2.677.883-1.589.144-3.55-.283-4.054-.883-.124-.147-.141-.217-.141-.575 0-.223.008-.406.018-.406.01 0 .176.064.37.143ZM3.03 16.58c-.315.156-.347.308-.347 1.662 0 1.302.033 1.493.28 1.667.11.077.322.09 1.517.09h1.163a.547.547 0 0 0 .547-.547v-1.163c0-1.542-.007-1.572-.362-1.72-.279-.117-2.557-.107-2.798.011Zm4.715-.01c-.343.15-.35.186-.35 1.72v1.162a.547.547 0 0 0 .547.546h1.163c1.195 0 1.407-.012 1.516-.089.248-.174.28-.365.28-1.667 0-1.814.064-1.751-1.76-1.748-.908.002-1.27.022-1.396.077Zm4.653.002c-.321.14-.346.262-.346 1.703 0 1.11.013 1.318.091 1.45a.58.58 0 0 0 .9.113.547.547 0 0 0 .16-.386v-1.163c0-1.542-.007-1.572-.362-1.72-.22-.092-.223-.092-.443.003Zm-7.359 1.7a.575.575 0 1 1-1.15 0 .575.575 0 0 1 1.15 0Zm4.657 0a.575.575 0 1 1-1.15 0 .575.575 0 0 1 1.15 0Zm6.604.126c1.045.357 1.938.48 3.149.432 1.119-.043 2.192-.282 2.917-.648a.142.142 0 0 1 .206.127v.202c0 .546-.069.641-.675.939-.768.377-1.652.549-2.832.549s-2.064-.172-2.832-.55c-.606-.297-.674-.392-.674-.938v-.202c0-.106.11-.175.205-.127.113.057.354.154.536.216Zm.044 2.348c1.036.369 2.275.516 3.46.411.825-.073 1.767-.291 2.357-.546a.289.289 0 0 1 .4.255l.004.08a.73.73 0 0 1-.238.57c-.3.272-.912.525-1.673.69-.75.164-2.428.164-3.178 0-.74-.16-1.364-.415-1.665-.68a.743.743 0 0 1-.252-.558v-.308c0-.107.108-.178.205-.136.113.049.374.148.58.222Z" fill="url(#a)"/><defs><linearGradient id="a" x1="12.799" y1=".752" x2="20.032" y2="21.289" gradientUnits="userSpaceOnUse"><stop stop-color="#FFDC5E"/><stop offset="1" stop-color="#F6BB1A"/></linearGradient></defs></svg>