<svg width="49" height="90" fill="none" xmlns="http://www.w3.org/2000/svg"><path d="M23.165 61.061c-3.492 0-6.434-2.887-5.482-6.247.3-1.057.679-2.085 1.139-3.083 1.32-2.864 2.932-5.32 4.838-7.365a135.735 135.735 0 0 1 5.718-6.015c1.907-1.965 3.52-4.051 4.84-6.261 1.319-2.292 1.979-4.665 1.979-7.12 0-3.437-1.063-6.056-3.19-7.857-2.126-1.882-4.985-2.823-8.577-2.823-3.446 0-6.415.982-8.907 2.946a14.09 14.09 0 0 0-1.542 1.413c-2.761 2.934-7.206 4.814-10.612 2.663-2.411-1.523-3.514-4.55-2.161-7.06 1.987-3.689 4.632-6.663 7.936-8.923C13.763 2.137 18.968.54 24.76.54c6.525 0 12.17 2.087 16.935 6.26 4.765 4.175 7.148 9.944 7.148 17.31 0 3.437-.66 6.67-1.98 9.698-1.319 2.946-2.932 5.483-4.838 7.61a433.358 433.358 0 0 1-5.718 6.261 32.278 32.278 0 0 0-4.84 6.384c-.173.303-.336.606-.488.91-1.555 3.128-4.322 6.087-7.814 6.087Zm5.884 25.78c-1.613 1.8-3.556 2.7-5.829 2.7-2.272 0-4.215-.9-5.828-2.7-1.613-1.801-2.42-3.97-2.42-6.507 0-2.537.77-4.706 2.31-6.506 1.613-1.8 3.592-2.7 5.938-2.7 2.273 0 4.216.9 5.829 2.7 1.613 1.8 2.419 3.97 2.419 6.506 0 2.537-.806 4.706-2.42 6.506Z" fill="#000"/></svg>