<svg xmlns="http://www.w3.org/2000/svg" fill="none" viewBox="0.62 0.25 48.22 89"><path d="M23.166 60.775c-3.493 0-6.435-2.887-5.483-6.247a21.1 21.1 0 0 1 1.139-3.083c1.32-2.864 2.932-5.32 4.838-7.365a135.682 135.682 0 0 1 5.719-6.015c1.906-1.965 3.519-4.051 4.838-6.261 1.32-2.292 1.98-4.665 1.98-7.12 0-3.437-1.063-6.056-3.19-7.857-2.125-1.882-4.984-2.823-8.577-2.823-3.445 0-6.415.982-8.907 2.946-.548.431-1.062.902-1.542 1.413-2.76 2.933-7.206 4.814-10.612 2.663-2.411-1.523-3.514-4.55-2.161-7.06 1.987-3.689 4.632-6.663 7.937-8.924C13.763 1.851 18.968.255 24.76.255c6.525 0 12.17 2.087 16.935 6.26 4.766 4.174 7.148 9.944 7.148 17.31 0 3.437-.66 6.67-1.98 9.698-1.319 2.946-2.932 5.483-4.838 7.61a434.42 434.42 0 0 1-5.718 6.261 32.274 32.274 0 0 0-4.839 6.384c-.174.303-.337.606-.489.91-1.555 3.127-4.321 6.087-7.813 6.087Zm5.883 25.78c-1.613 1.8-3.556 2.7-5.828 2.7-2.273 0-4.216-.9-5.829-2.7-1.613-1.801-2.42-3.97-2.42-6.507 0-2.537.77-4.706 2.31-6.506 1.613-1.8 3.593-2.7 5.939-2.7 2.272 0 4.215.9 5.828 2.7 1.613 1.8 2.42 3.969 2.42 6.506 0 2.537-.807 4.706-2.42 6.506Z" fill="#000"/></svg>