<svg width="39" height="40" fill="none" xmlns="http://www.w3.org/2000/svg"><circle cx="19.5" cy="20.217" r="19.2" fill="#fff" stroke="#E1E1E1" stroke-width=".6"/><mask id="a" style="mask-type:alpha" maskUnits="userSpaceOnUse" x="0" y="0" width="38" height="40"><path d="M37.7 19.717c0 5.182-1.732 10.126-4.929 13.699-3.191 3.567-7.854 5.782-13.757 5.501C8.666 38.424.3 30.042.3 19.717c0-10.328 8.372-18.7 18.7-18.7s18.7 8.372 18.7 18.7Z" fill="#fff" stroke="#E1E1E1" stroke-width=".6"/></mask><g mask="url(#a)" fill="#F3F3F7"><path d="M19.5 10.717c-4.216 0-7.646 3.43-7.646 7.646 0 4.217 3.43 7.647 7.646 7.647 4.216 0 7.646-3.43 7.646-7.647 0-4.216-3.43-7.646-7.646-7.646ZM29.014 31.005c-2.094-2.125-4.869-3.296-7.815-3.296h-3.398c-2.946 0-5.721 1.17-7.815 3.296a11.144 11.144 0 0 0-3.23 7.862c0 .47.38.85.85.85h23.788c.47 0 .85-.38.85-.85 0-2.955-1.147-5.747-3.23-7.862Z"/></g></svg>