<svg xmlns="http://www.w3.org/2000/svg" fill="none" viewBox="0 0.72 39 39"><circle cx="19.5" cy="20.217" r="19.2" fill="#fff" stroke="#E1E1E1" stroke-width=".6"/><mask id="a" style="mask-type:alpha" maskUnits="userSpaceOnUse" x="0" y="0" width="38" height="40"><path d="M37.7 19.717c0 5.182-1.732 10.126-4.929 13.699-3.191 3.567-7.854 5.782-13.757 5.501C8.666 38.424.3 30.042.3 19.717c0-10.328 8.372-18.7 18.7-18.7s18.7 8.372 18.7 18.7Z" fill="#fff" stroke="#E1E1E1" stroke-width=".6"/></mask><g mask="url(#a)"><path d="M29.074 24.47c-1.47 0-2.912-.23-4.28-.682-.669-.228-1.493-.018-1.902.401l-2.698 2.038c-3.13-1.671-5.057-3.598-6.705-6.704l1.977-2.628a1.94 1.94 0 0 0 .477-1.966 13.646 13.646 0 0 1-.684-4.286 1.928 1.928 0 0 0-1.926-1.926H8.926A1.928 1.928 0 0 0 7 10.643c0 12.171 9.902 22.074 22.074 22.074A1.928 1.928 0 0 0 31 30.79v-4.395a1.928 1.928 0 0 0-1.926-1.926Z" fill="#F3F3F7"/></g></svg>