<svg xmlns="http://www.w3.org/2000/svg" fill="none" viewBox="0 0.86 113.75 46.27"><g clip-path="url(#a)"><path fill-rule="evenodd" clip-rule="evenodd" d="M0 .864h24.247c5.97 0 11.185 3.026 13.809 7.44-1.938 2.862-3.053 6.216-3.053 9.802 0 2.512.548 4.91 1.542 7.106-2.863 3.26-7.318 5.364-12.299 5.364h-5.298L0 13.223V.864Zm10.186 8.749H22.04c4.198 0 7.632 2.571 7.632 5.715v.785c0 3.143-3.434 5.715-7.632 5.715H10.186V9.613Z" fill="#B2B3B3"/><path fill-rule="evenodd" clip-rule="evenodd" d="M14.808.864h9.439c5.97 0 11.185 3.026 13.809 7.44-1.938 2.862-3.053 6.216-3.053 9.801 0 .183.003.364.01.545l-5.678-4.998c-.62-1.504-2.053-2.749-3.91-3.442L14.807.864ZM15.35 35.985H0V22.197l15.35 13.788Z" fill="#fff"/><path fill-rule="evenodd" clip-rule="evenodd" d="M0 .864h.31l9.964 8.749h-.088v12.215H22.04c.667 0 1.315-.066 1.933-.187l8.056 7.072a16.96 16.96 0 0 1-7.782 1.863H20.09L0 13.156V.863Z" fill="#E31E24"/><path fill-rule="evenodd" clip-rule="evenodd" d="M40.114 35.985h-15.35L0 13.155V.865h.309l24.454 21.331 15.351 13.789Z" fill="#fff"/><path fill-rule="evenodd" clip-rule="evenodd" d="M59.916 14.58h13.548a17.724 17.724 0 0 0-.385 3.676c0 3.45.997 6.698 2.754 9.541v12.656l-9.963-4.378V33.14c-2.836 1.445-6.12 2.272-9.623 2.272-10.714 0-19.4-7.734-19.4-17.274 0-9.54 8.686-17.274 19.4-17.274h.024l13.724.052 5.335 8.66c-6.392 0-12.843.02-19.28.02v.04c-5.184.093-9.354 3.864-9.354 8.502 0 4.697 4.276 8.505 9.551 8.505 4.685 0 8.582-3.003 9.395-6.965l-5.725-5.098Z" fill="#B2B3B3"/><path fill-rule="evenodd" clip-rule="evenodd" d="m66.03 31.884.164-11.734-.662-.57c-.54 3.043-3.603 5.695-6.752 6.761l7.25 5.543ZM54.496 9.786l-7.746-6.752c-2.697 1.343-5.418 3.909-7.124 6.19l7.43 6.591c1.188-2.715 4.14-5.5 7.44-6.03Z" fill="#fff"/><path d="M.667 46.951v-5.65h2.357c.893 0 1.474.027 1.746.084a2 2 0 0 1 1.047.554c.28.284.422.65.422 1.1 0 .348-.082.638-.243.875a1.762 1.762 0 0 1-.616.558c-.25.134-.504.223-.761.267-.35.054-.857.081-1.522.081h-.956v2.131H.667Zm1.474-4.696v1.61h.802c.578 0 .962-.03 1.157-.09a.95.95 0 0 0 .458-.278.648.648 0 0 0 .166-.44.647.647 0 0 0-.232-.511 1.123 1.123 0 0 0-.59-.253c-.174-.025-.525-.038-1.054-.038h-.706ZM7.01 44.16c0-.576.112-1.06.333-1.452.165-.288.392-.547.678-.776.287-.23.6-.399.94-.51.455-.15.978-.224 1.572-.224 1.074 0 1.931.259 2.577.776.644.518.966 1.238.966 2.16 0 .914-.32 1.63-.96 2.145-.638.517-1.494.775-2.563.775-1.083 0-1.945-.257-2.584-.771-.639-.513-.96-1.22-.96-2.123Zm1.515-.038c0 .64.191 1.126.572 1.457.382.33.866.496 1.453.496.588 0 1.069-.165 1.447-.492.376-.329.564-.82.564-1.477 0-.649-.183-1.133-.55-1.45-.366-.32-.853-.48-1.461-.48-.607 0-1.097.162-1.468.484-.37.324-.557.81-.557 1.462ZM19.44 46.95v-2.36h-.298c-.466 0-.793.054-.984.162-.192.107-.517.429-.98.964l-1.053 1.234h-1.758l.888-1.102c.35-.438.63-.745.836-.92.208-.176.47-.334.781-.472-.676-.083-1.164-.266-1.464-.55a1.356 1.356 0 0 1-.45-1.02c0-.344.11-.649.335-.915.223-.265.518-.444.884-.535.366-.09.913-.137 1.642-.137h3.096v5.65h-1.474v.001Zm0-4.696h-1.147c-.583 0-.966.01-1.149.03a.839.839 0 0 0-.474.21.592.592 0 0 0-.198.463c0 .198.064.356.19.473a.89.89 0 0 0 .487.219c.197.027.598.042 1.203.042h1.088v-1.437Zm3.481-.955h5.099v5.651h-1.474v-4.696H24.36v2.413c0 .69-.03 1.173-.09 1.445a.991.991 0 0 1-.434.64c-.23.153-.59.23-1.08.23-.172 0-.484-.013-.938-.038v-.886l.329.004c.306 0 .515-.031.62-.096.107-.064.16-.222.16-.473l-.006-.97V41.3Z" fill="#B2B3B3"/><path d="M32.374 41.3h4.93v.955h-3.456v4.696h-1.474V41.3Zm5.691 5.65V41.3h2.358c.893 0 1.474.028 1.745.085a2 2 0 0 1 1.047.553c.281.284.422.651.422 1.101 0 .347-.081.638-.242.875a1.759 1.759 0 0 1-.617.558 2.464 2.464 0 0 1-.761.267c-.35.054-.857.081-1.522.081h-.956v2.131h-1.474Zm1.475-4.695v1.61h.801c.578 0 .963-.03 1.158-.09a.95.95 0 0 0 .457-.278.648.648 0 0 0 .166-.441.647.647 0 0 0-.232-.51 1.12 1.12 0 0 0-.59-.253c-.174-.025-.525-.038-1.053-.038h-.707Zm4.425-.955h1.656l1.694 2.925 1.45-2.925H50.3l-2.463 4.295c-.267.465-.54.82-.818 1.063-.278.243-.636.364-1.076.364-.434 0-.773-.022-1.017-.066v-.85c.209.01.397.016.564.016.34 0 .583-.048.73-.144.147-.098.29-.307.423-.626L43.965 41.3Zm7.092 0h5.785v5.65h-1.474v-4.695h-2.836v4.696h-1.475V41.3Zm7.309 0h5.785v5.65h-1.474v-4.695H59.84v4.696h-1.474V41.3Z" fill="#fff"/><path fill-rule="evenodd" clip-rule="evenodd" d="M94.312.963c9.045 0 16.649 5.495 18.832 12.94h-10.822c-1.656-2.39-4.624-3.984-8.01-3.984-5.194 0-9.404 3.749-9.404 8.373 0 4.625 4.21 8.374 9.404 8.374 3.767 0 7.016-1.973 8.518-4.821h10.534c-1.841 7.866-9.671 13.776-19.052 13.776-10.749 0-19.462-7.758-19.462-17.329 0-9.57 8.713-17.329 19.462-17.329Z" fill="#fff"/><path fill-rule="evenodd" clip-rule="evenodd" d="M93.58 35.608c-9.933-.327-17.964-7.28-18.68-16.04l18.68 16.04ZM92.674 10.046l-8.015-6.804c-2.955 1.454-5.584 3.875-7.053 6.156l7.612 6.754c.832-2.947 3.85-5.578 7.456-6.106ZM95.92 26.544l7.939 6.853c2.756-1.332 5.502-3.686 7.137-6.179l-6.044-5.363h-2.133c-1.216 2.385-3.854 4.243-6.9 4.69Z" fill="#B2B3B3"/><path d="M68.439 41.352h1.38v2.42c.307-.026.515-.091.623-.198.108-.106.276-.4.501-.885.285-.615.572-.998.86-1.148.285-.15.743-.225 1.378-.225.032 0 .099 0 .2-.004v.85l-.195-.005c-.283 0-.489.03-.619.088a.742.742 0 0 0-.316.265c-.08.12-.2.364-.357.734a2.415 2.415 0 0 1-.273.493c-.097.133-.27.257-.517.373.306.072.558.218.758.438.2.22.42.529.657.93l.929 1.555h-1.62l-.817-1.463-.079-.12a5.908 5.908 0 0 1-.171-.267c-.175-.28-.318-.455-.429-.525-.112-.07-.282-.106-.512-.108v2.483h-1.381v-5.681Zm5.507 2.875c0-.579.105-1.066.313-1.46.154-.29.367-.55.635-.78.268-.23.561-.4.88-.513.426-.15.916-.225 1.472-.225 1.006 0 1.809.26 2.414.78.603.521.904 1.245.904 2.172 0 .919-.3 1.638-.898 2.157-.598.52-1.4.778-2.401.778-1.014 0-1.822-.258-2.42-.775-.599-.515-.898-1.227-.898-2.134Zm1.419-.038c0 .644.18 1.132.536 1.465.357.332.811.499 1.36.499.551 0 1.002-.166 1.356-.495.352-.33.528-.825.528-1.485 0-.652-.17-1.138-.515-1.458-.343-.322-.799-.482-1.368-.482-.569 0-1.027.163-1.375.487-.348.325-.522.815-.522 1.47v-.001Zm6.273 2.844v-5.68h1.381v2.237h2.685v-2.238h1.381v5.681h-1.38V44.55h-2.686v2.483h-1.38Zm11.238-2.094 1.334.34c-.205.626-.546 1.09-1.022 1.395-.477.302-1.08.455-1.811.455-.906 0-1.65-.258-2.235-.774-.582-.516-.874-1.22-.874-2.116 0-.945.293-1.68.879-2.204.586-.524 1.357-.786 2.312-.786.835 0 1.513.207 2.033.618.311.243.543.593.698 1.049l-1.361.27a1.197 1.197 0 0 0-.505-.698c-.257-.17-.568-.255-.933-.255-.506 0-.918.15-1.232.454-.316.301-.473.79-.473 1.468 0 .716.156 1.228.465 1.532.311.306.715.458 1.211.458.367 0 .683-.097.946-.291.264-.194.454-.498.568-.915Zm8.422 2.094H99.81l-.588-1.293h-2.735l-.567 1.293h-1.46l2.648-5.68h1.458l2.732 5.68Zm-2.524-2.253-.947-2.103-.92 2.103h1.867Zm3.865-3.428h4.775v5.681h-1.381v-4.72h-2.047v2.424c0 .695-.028 1.18-.084 1.454-.056.275-.191.49-.406.644-.216.153-.552.23-1.011.23-.162 0-.454-.013-.88-.038v-.89l.308.004c.287 0 .483-.032.581-.097.1-.065.149-.223.149-.476l-.004-.976v-3.24Zm7.724 5.681v-4.72h-2.019v-.96h5.409v.96h-2.01v4.72h-1.38Z" fill="#B2B3B3"/></g><defs><clipPath id="a"><path fill="#fff" transform="translate(0 .864)" d="M0 0h113.753v46.272H0z"/></clipPath></defs></svg>