<svg xmlns="http://www.w3.org/2000/svg" fill="none" viewBox="0.25 0.62 17.98 14.95"><path d="m17.825 12.443-2.777-2.314c-.553-.46-1.469-.445-2.041.032l-1.4 1.165-.275-.128c-.884-.408-2.093-.967-3.365-2.028C6.69 8.107 6.019 7.098 5.528 6.361l-.15-.225.938-.781.462-.385c.573-.478.59-1.241.037-1.701L4.038.954C3.487.494 2.57.508 1.997.986l-.783.656.022.018c-.263.279-.482.6-.645.948-.15.33-.244.645-.287.961-.367 2.533 1.022 4.848 4.792 7.99 5.211 4.342 9.41 4.014 9.592 3.998a5.47 5.47 0 0 0 1.157-.242 4.815 4.815 0 0 0 1.133-.535l.017.012.793-.647c.572-.477.589-1.24.037-1.702Z" fill="#F6BB1A"/></svg>