<svg xmlns="http://www.w3.org/2000/svg" viewBox="0.02 0.52 14.98 14.95">
<path d="M14.6641 12.3498L12.35 10.0355C11.8891 9.57643 11.1258 9.59038 10.6488 10.0675L9.48299 11.2331C9.40933 11.1925 9.33309 11.1501 9.25294 11.1051C8.51672 10.6972 7.50909 10.1381 6.44877 9.07699C5.3853 8.01365 4.82567 7.00447 4.4165 6.26778C4.37332 6.18974 4.33195 6.11449 4.2911 6.04303L5.07355 5.26174L5.45823 4.87659C5.93593 4.39875 5.94911 3.63568 5.48926 3.17528L3.1752 0.860697C2.71536 0.400941 1.95172 0.414888 1.47402 0.892725L0.821835 1.54865L0.839657 1.56635C0.620971 1.84538 0.438231 2.16721 0.302242 2.51427C0.176885 2.84462 0.0988382 3.15986 0.0631512 3.47575C-0.242406 6.00889 0.915164 8.32399 4.05666 11.4655C8.39916 15.8077 11.8986 15.4797 12.0496 15.4637C12.3784 15.4244 12.6935 15.3458 13.0138 15.2214C13.3578 15.0871 13.6794 14.9046 13.9583 14.6864L13.9725 14.699L14.6332 14.052C15.11 13.5743 15.1237 12.811 14.6641 12.3498Z"/>
</svg>