<?xml version="1.0" standalone="no"?>
<!DOCTYPE svg PUBLIC "-//W3C//DTD SVG 20010904//EN"
 "http://www.w3.org/TR/2001/REC-SVG-20010904/DTD/svg10.dtd">
<svg version="1.0" xmlns="http://www.w3.org/2000/svg"
 width="1808.000000pt" height="1808.000000pt" viewBox="0 0 1808.000000 1808.000000"
 preserveAspectRatio="xMidYMid meet">
<metadata>
Created by potrace 1.14, written by Peter Selinger 2001-2017
</metadata>
<g transform="translate(0.000000,1808.000000) scale(0.100000,-0.100000)"
fill="#000000" stroke="none">
<path d="M10 11204 l0 -987 22 -19 c25 -21 160 -145 219 -199 20 -19 73 -68
119 -109 45 -41 94 -86 109 -99 14 -13 71 -65 126 -116 55 -51 120 -111 145
-133 25 -22 63 -57 86 -79 22 -21 80 -74 129 -118 48 -44 105 -96 125 -115 21
-19 77 -71 126 -115 48 -44 104 -95 123 -114 20 -18 70 -64 111 -101 41 -37
91 -83 111 -101 20 -19 74 -68 120 -110 46 -43 100 -92 120 -110 20 -19 80
-74 134 -124 54 -49 119 -109 144 -133 25 -24 80 -74 121 -112 42 -37 90 -81
106 -96 17 -16 75 -69 129 -119 113 -104 119 -110 251 -231 54 -51 111 -102
125 -115 46 -42 220 -203 259 -239 21 -19 84 -78 141 -130 88 -81 135 -125
249 -230 9 -8 68 -62 130 -120 63 -58 129 -118 146 -135 18 -16 69 -64 114
-105 46 -41 89 -80 95 -87 9 -9 310 -12 1236 -12 l1224 0 -40 36 c-22 19 -74
66 -115 104 -41 37 -85 76 -97 86 -12 11 -59 52 -104 93 -46 41 -100 91 -122
110 -21 19 -49 44 -61 55 -74 67 -192 173 -306 275 -52 47 -112 101 -134 120
-21 19 -54 50 -72 67 -19 18 -34 31 -34 29 0 -2 -17 13 -38 33 -21 20 -66 61
-101 93 l-63 56 23 15 c13 8 47 27 74 42 174 98 368 246 518 396 91 92 109
121 89 145 -5 5 -24 47 -41 94 -18 47 -37 94 -41 105 -8 20 -36 114 -45 150
-3 11 -16 63 -29 115 -14 52 -27 112 -30 132 -3 21 -10 66 -16 100 -20 127
-22 167 -22 393 0 213 4 312 17 375 3 14 7 43 11 65 7 50 50 247 66 300 6 22
12 42 13 45 21 77 77 233 111 310 64 141 183 359 249 455 12 18 8 28 -43 106
-116 173 -230 304 -409 466 -53 48 -233 183 -260 196 -13 6 -23 14 -23 19 0 4
-4 8 -8 8 -5 0 -47 23 -93 50 -46 28 -94 53 -106 56 -13 4 -23 9 -23 13 0 3
-15 12 -32 20 -18 8 -60 26 -93 41 -63 28 -126 54 -135 56 -3 0 -12 4 -20 7
-23 10 -103 38 -120 42 -8 2 -16 4 -17 5 -3 3 -3 3 -53 14 -19 5 -39 11 -45
14 -5 4 -17 7 -25 8 -24 4 -124 26 -140 31 -8 3 -26 7 -40 8 -14 2 -41 6 -60
9 -19 3 -66 9 -105 15 -38 5 -77 10 -85 11 -8 2 -939 5 -2067 7 l-2053 3 0
-986z m3690 -418 c25 -4 58 -9 73 -12 16 -3 38 -7 50 -9 55 -7 165 -38 245
-69 346 -133 583 -373 659 -667 3 -13 7 -99 9 -191 2 -140 -1 -179 -18 -245
-11 -43 -24 -84 -30 -90 -6 -7 -8 -13 -5 -13 7 0 -59 -127 -73 -140 -3 -3 -18
-23 -35 -45 -40 -54 -118 -131 -185 -182 -69 -52 -205 -133 -250 -148 -3 -1
-18 -7 -35 -14 -50 -21 -165 -60 -165 -56 0 3 -12 0 -27 -6 -49 -19 -61 -18
-85 4 -14 12 -49 43 -79 68 -30 26 -67 58 -82 73 -15 14 -30 26 -32 26 -2 0
-20 15 -38 33 -19 17 -58 53 -88 78 -48 42 -97 84 -313 273 -33 28 -66 58 -76
66 -9 8 -52 46 -95 84 -140 120 -198 171 -209 182 -6 5 -78 68 -161 139 -157
136 -193 167 -229 200 -12 11 -48 43 -80 70 -32 28 -68 59 -80 70 -52 46 -172
151 -246 215 -29 25 -60 52 -70 60 -9 8 -46 40 -81 70 -35 30 -74 65 -87 78
-13 13 -46 41 -73 62 -27 21 -44 40 -39 42 20 6 1986 1 2030 -6z"/>
<path d="M8749 12186 c-2 -2 -38 -7 -79 -11 -120 -10 -146 -14 -250 -31 -25
-4 -52 -8 -60 -9 -14 -2 -39 -7 -100 -20 -14 -3 -37 -7 -52 -10 -15 -3 -40
-10 -55 -16 -15 -6 -29 -10 -31 -10 -9 4 -192 -47 -214 -60 -10 -5 -23 -9 -29
-9 -10 0 -209 -76 -273 -104 -17 -8 -46 -20 -63 -27 -18 -8 -33 -17 -33 -21 0
-3 -14 -10 -32 -13 -17 -4 -48 -16 -67 -27 -74 -41 -176 -102 -186 -110 -5 -5
-48 -33 -94 -64 -93 -60 -177 -121 -201 -144 -9 -8 -31 -26 -49 -40 -79 -59
-255 -229 -343 -331 -89 -102 -238 -298 -238 -312 0 -3 -17 -32 -38 -64 -137
-207 -291 -595 -328 -823 -3 -19 -8 -38 -10 -42 -3 -4 -7 -31 -10 -60 -3 -29
-7 -64 -10 -78 -23 -121 -22 -534 1 -645 3 -11 7 -36 10 -55 8 -56 14 -92 26
-141 6 -26 11 -53 12 -60 2 -8 6 -20 10 -26 5 -7 6 -13 3 -13 -3 0 1 -18 9
-40 8 -22 12 -40 10 -40 -2 0 3 -17 11 -37 9 -20 17 -44 19 -52 10 -50 159
-390 188 -426 4 -5 30 -48 57 -94 49 -82 162 -246 184 -266 6 -5 29 -32 51
-60 50 -63 111 -129 200 -216 97 -94 116 -111 198 -176 40 -32 74 -60 77 -63
7 -7 63 -46 151 -106 263 -179 613 -338 944 -430 55 -15 109 -28 120 -30 11
-2 54 -10 95 -19 80 -18 94 -21 153 -29 20 -3 52 -8 70 -11 220 -33 654 -39
857 -11 34 5 108 14 160 21 63 9 265 50 315 65 17 5 71 21 120 35 50 15 108
33 130 42 22 8 47 16 55 18 25 6 222 87 269 112 24 13 50 23 57 23 8 0 14 5
14 10 0 6 7 10 15 10 12 0 15 -35 17 -232 l3 -232 216 -96 c119 -52 236 -103
260 -114 24 -10 72 -31 107 -47 34 -16 64 -29 66 -29 3 0 37 -15 78 -34 40
-18 101 -45 135 -60 35 -14 89 -38 120 -53 32 -15 63 -28 68 -29 6 -1 44 -17
85 -36 41 -19 107 -49 145 -66 39 -16 90 -39 115 -50 25 -11 63 -28 85 -38 22
-9 42 -18 45 -19 11 -4 45 -18 52 -22 3 -1 6 450 6 1004 l-1 1008 -42 75 c-75
132 -123 229 -117 234 3 3 0 6 -6 6 -7 0 -12 6 -12 13 0 7 -12 38 -26 68 -15
30 -27 59 -29 64 -1 6 -7 24 -14 40 -7 17 -19 50 -27 75 -8 25 -19 54 -23 65
-5 11 -14 40 -21 65 -7 25 -16 56 -21 70 -17 49 -66 288 -74 360 -2 19 -7 67
-12 105 -10 90 -10 457 0 555 8 89 15 132 32 225 7 38 11 74 9 80 -4 11 -2128
14 -2139 3 -3 -3 9 -18 27 -33 34 -28 149 -130 198 -175 15 -14 55 -50 90 -80
34 -30 72 -64 84 -75 13 -11 53 -47 90 -79 37 -33 82 -72 99 -88 49 -45 85
-77 172 -153 99 -87 125 -112 120 -116 -2 -2 -5 -18 -8 -35 -19 -119 -137
-349 -244 -476 -103 -121 -323 -314 -411 -359 -15 -8 -29 -17 -32 -20 -9 -12
-193 -106 -260 -133 -36 -15 -73 -31 -83 -37 -11 -6 -21 -8 -24 -5 -3 3 -14 1
-24 -4 -9 -6 -34 -13 -54 -16 -21 -3 -46 -7 -57 -9 -100 -20 -401 -26 -493
-11 -22 3 -56 8 -75 11 -49 7 -67 11 -135 29 -33 10 -64 18 -70 20 -89 22
-276 106 -374 167 -232 146 -415 343 -525 566 -43 87 -86 199 -92 238 -1 11
-3 20 -4 20 -3 0 -8 26 -22 115 -14 85 -16 284 -4 350 29 151 72 266 136 365
11 17 23 37 27 45 4 8 22 35 40 60 18 25 37 50 41 55 83 114 246 270 382 369
93 67 121 84 239 142 118 58 204 87 333 113 162 32 168 33 853 36 358 2 655 4
660 5 6 1 12 2 15 1 16 -6 160 -5 160 1 0 4 11 4 23 -1 13 -5 30 -5 37 -1 8 5
19 6 24 3 5 -4 35 -6 65 -4 31 1 63 2 71 2 72 -4 182 -1 190 4 6 3 10 3 10 -2
0 -7 28 -7 190 -2 19 1 47 -1 62 -4 15 -3 30 -2 33 3 3 5 12 7 20 4 22 -9 105
-10 105 -2 0 4 13 3 29 -2 16 -4 32 -6 35 -3 8 9 58 9 82 2 11 -4 27 -3 34 1
8 5 18 6 24 3 5 -4 30 -5 55 -5 25 1 65 2 89 2 23 0 49 0 57 0 32 0 45 0 58
-1 13 -1 87 0 127 2 14 0 31 0 38 0 12 -1 15 -1 85 -1 78 0 111 1 115 4 4 5
-22 49 -208 350 -91 147 -176 286 -189 309 -13 23 -28 44 -32 45 -5 2 -9 8 -9
13 0 6 -17 36 -37 67 -21 31 -43 68 -50 82 -7 14 -25 44 -41 67 -23 35 -60 95
-135 218 -7 11 -28 44 -47 75 -19 30 -41 66 -48 80 -7 14 -21 36 -31 49 l-18
23 -1205 4 c-662 2 -1207 2 -1209 0z"/>
<path d="M14937 12173 c-1 -1 -47 -4 -102 -7 -55 -3 -122 -8 -150 -11 -27 -3
-63 -8 -80 -10 -66 -7 -131 -17 -145 -20 -8 -3 -33 -7 -55 -10 -22 -4 -48 -8
-57 -11 -9 -3 -27 -7 -40 -9 -13 -3 -50 -11 -83 -20 -33 -8 -69 -16 -80 -18
-11 -2 -27 -6 -35 -9 -8 -3 -73 -25 -145 -48 -71 -24 -141 -47 -155 -53 -14
-6 -27 -11 -30 -12 -86 -29 -403 -185 -478 -236 -24 -16 -47 -29 -53 -29 -5 0
-9 -4 -9 -10 0 -5 -5 -10 -11 -10 -12 0 -102 -61 -107 -72 -2 -5 -8 -8 -13 -8
-9 0 -83 -53 -99 -70 -3 -3 -27 -24 -55 -45 -131 -104 -328 -299 -428 -425
-57 -71 -162 -222 -230 -332 -39 -62 -118 -220 -152 -303 -49 -116 -95 -245
-89 -245 3 0 0 -10 -7 -21 -10 -19 -43 -144 -55 -206 -2 -13 -6 -35 -9 -50 -3
-16 -8 -41 -10 -58 -2 -16 -7 -50 -11 -75 -4 -25 -9 -56 -11 -70 -2 -14 -5
-113 -7 -220 -4 -277 15 -441 80 -682 14 -51 27 -100 29 -108 14 -63 104 -276
173 -410 53 -104 220 -364 261 -407 12 -12 21 -26 21 -32 0 -5 4 -11 8 -13 5
-1 37 -36 72 -77 87 -102 237 -248 344 -336 155 -127 374 -273 516 -343 19 -9
37 -20 40 -23 7 -8 258 -119 335 -148 33 -13 69 -27 80 -31 52 -22 325 -98
408 -115 15 -3 39 -8 55 -11 15 -3 36 -7 47 -9 11 -1 36 -5 55 -9 19 -4 51 -9
70 -11 19 -3 46 -7 60 -9 179 -28 702 -29 860 -2 14 3 48 7 75 10 28 4 61 8
75 11 14 3 36 7 50 9 14 2 70 14 125 26 55 12 109 23 120 25 11 3 31 9 45 14
14 5 52 16 85 26 64 18 167 51 200 65 11 5 52 21 90 36 150 57 537 259 565
295 3 3 14 11 25 17 27 14 190 136 255 192 182 154 350 332 473 501 62 85 181
277 200 322 6 15 15 27 19 27 4 0 8 5 8 11 0 6 15 43 34 82 78 168 92 208 173
480 3 9 1 18 -3 18 -5 1 -382 2 -838 3 -545 1 -833 -2 -838 -9 -5 -5 -30 -44
-55 -85 -26 -41 -50 -77 -53 -80 -3 -3 -16 -18 -29 -35 -50 -66 -165 -178
-236 -230 -22 -17 -42 -32 -45 -36 -24 -26 -182 -112 -335 -180 -57 -25 -224
-71 -310 -85 -22 -3 -42 -7 -45 -9 -8 -5 -195 -18 -250 -18 -42 0 -167 9 -250
18 -45 5 -190 40 -255 62 -27 10 -52 18 -55 18 -67 17 -248 110 -351 179 -160
108 -338 299 -415 446 -16 30 -31 57 -34 60 -17 17 -85 191 -95 243 -3 10 -7
26 -9 35 -6 17 -11 48 -22 127 -16 119 -8 288 21 410 20 87 39 143 76 223 16
35 29 65 29 67 0 13 89 147 136 206 196 246 488 437 784 514 89 23 100 26 135
30 17 2 30 4 30 5 0 10 169 24 280 24 161 -1 262 -13 408 -50 100 -25 182 -54
272 -95 28 -12 52 -23 55 -23 3 -1 21 -11 41 -24 20 -12 39 -22 43 -22 4 0 12
-5 19 -10 7 -6 37 -27 67 -47 30 -20 60 -41 67 -47 6 -6 26 -22 45 -36 40 -30
200 -190 190 -190 -4 0 -2 -4 3 -8 6 -4 23 -24 38 -44 l28 -38 860 0 c472 0
859 3 859 6 0 14 -33 122 -46 151 -8 17 -14 34 -14 37 0 21 -148 325 -195 401
-14 22 -28 47 -32 55 -4 8 -9 17 -12 20 -3 3 -24 32 -46 64 -34 52 -106 149
-133 181 -208 249 -406 428 -667 602 -180 119 -387 227 -580 303 -60 23 -119
46 -130 50 -93 37 -341 106 -410 115 -11 1 -40 8 -64 14 -23 7 -45 10 -48 7
-3 -3 -13 -1 -22 3 -9 5 -43 12 -76 15 -33 4 -69 9 -80 12 -66 14 -538 38
-548 27z"/>
<path d="M10 7686 l0 -1095 1222 0 1222 0 -59 56 c-33 30 -91 83 -130 116 -38
34 -94 85 -125 113 -30 28 -67 62 -82 75 -31 27 -135 121 -178 159 -15 14 -60
54 -100 90 -40 36 -85 76 -100 90 -28 26 -157 141 -194 173 -12 10 -57 51
-100 90 -168 151 -192 173 -230 207 -22 19 -51 46 -66 60 -14 14 -44 40 -66
59 -21 19 -64 57 -95 85 -31 28 -73 67 -95 86 -21 19 -86 77 -144 129 -117
104 -155 139 -286 257 -49 45 -107 96 -128 115 -22 19 -52 45 -66 59 -14 14
-57 52 -95 85 -37 33 -74 66 -81 73 -7 6 -15 12 -18 12 -3 0 -6 -492 -6 -1094z"/>
</g>
</svg>
